<svg width="44" height="44" viewBox="0 0 44 44" fill="none" xmlns="http://www.w3.org/2000/svg">
<path d="M22.0001 13.75C20.3684 13.75 18.7733 14.2339 17.4166 15.1404C16.0599 16.0469 15.0025 17.3354 14.3781 18.8429C13.7537 20.3504 13.5903 22.0092 13.9086 23.6095C14.2269 25.2098 15.0127 26.6799 16.1665 27.8336C17.3202 28.9874 18.7902 29.7732 20.3906 30.0915C21.9909 30.4098 23.6497 30.2464 25.1572 29.622C26.6647 28.9976 27.9532 27.9402 28.8597 26.5835C29.7662 25.2268 30.2501 23.6317 30.2501 22C30.2478 19.8127 29.3779 17.7156 27.8312 16.1689C26.2845 14.6222 24.1874 13.7523 22.0001 13.75ZM22.0001 27.5C20.9123 27.5 19.8489 27.1774 18.9444 26.5731C18.04 25.9687 17.335 25.1098 16.9187 24.1048C16.5025 23.0998 16.3935 21.9939 16.6058 20.927C16.818 19.8601 17.3418 18.8801 18.111 18.1109C18.8802 17.3417 19.8602 16.8179 20.9271 16.6057C21.994 16.3935 23.0998 16.5024 24.1048 16.9187C25.1098 17.335 25.9688 18.0399 26.5732 18.9444C27.1775 19.8488 27.5001 20.9122 27.5001 22C27.5001 23.4587 26.9206 24.8576 25.8892 25.8891C24.8577 26.9205 23.4588 27.5 22.0001 27.5ZM40.896 18.4267C40.8577 18.2331 40.7782 18.05 40.6628 17.8898C40.5475 17.7297 40.399 17.5963 40.2274 17.4986L35.1004 14.5767L35.0798 8.79829C35.0791 8.59928 35.0353 8.40278 34.9514 8.22236C34.8674 8.04194 34.7452 7.8819 34.5934 7.75329C32.7336 6.18011 30.5918 4.97453 28.2821 4.20063C28.1002 4.13907 27.9075 4.11628 27.7162 4.13375C27.525 4.15121 27.3395 4.20854 27.1718 4.30204L22.0001 7.19298L16.8232 4.29688C16.6554 4.20286 16.4697 4.1451 16.2781 4.12733C16.0866 4.10957 15.8934 4.1322 15.7112 4.19376C13.4031 4.97331 11.2639 6.18349 9.4068 7.76016C9.25515 7.88858 9.13314 8.04835 9.04917 8.22846C8.9652 8.40856 8.92127 8.60473 8.9204 8.80345L8.89461 14.587L3.76758 17.5089C3.59605 17.6066 3.44756 17.74 3.33219 17.9002C3.21682 18.0603 3.13729 18.2434 3.09899 18.437C2.62976 20.795 2.62976 23.2222 3.09899 25.5802C3.13729 25.7738 3.21682 25.9569 3.33219 26.1171C3.44756 26.2772 3.59605 26.4106 3.76758 26.5083L8.89461 29.4302L8.91524 35.2086C8.91586 35.4076 8.95968 35.6041 9.04365 35.7845C9.12763 35.965 9.24978 36.125 9.40165 36.2536C11.2615 37.8268 13.4032 39.0324 15.7129 39.8063C15.8948 39.8678 16.0876 39.8906 16.2788 39.8731C16.47 39.8557 16.6555 39.7983 16.8232 39.7049L22.0001 36.807L27.177 39.7031C27.3818 39.8173 27.6127 39.8765 27.8473 39.875C27.9974 39.875 28.1466 39.8506 28.289 39.8028C30.5968 39.0243 32.736 37.8153 34.5934 36.2399C34.745 36.1114 34.867 35.9517 34.951 35.7716C35.035 35.5915 35.0789 35.3953 35.0798 35.1966L35.1056 29.413L40.2326 26.4911C40.4041 26.3935 40.5526 26.26 40.668 26.0999C40.7833 25.9397 40.8629 25.7566 40.9012 25.563C41.3678 23.2069 41.366 20.7821 40.896 18.4267ZM38.3179 24.4269L33.4074 27.2199C33.1923 27.3422 33.0141 27.5203 32.8918 27.7355C32.7921 27.9074 32.6873 28.0895 32.5807 28.2614C32.4443 28.4782 32.3716 28.7289 32.371 28.985L32.3452 34.528C31.0254 35.5645 29.5549 36.3933 27.9848 36.9858L23.0313 34.2255C22.8257 34.1117 22.5943 34.0525 22.3593 34.0536H22.3266C22.1187 34.0536 21.909 34.0536 21.701 34.0536C21.455 34.0475 21.2119 34.1068 20.9963 34.2255L16.0395 36.9927C14.466 36.4047 12.9915 35.58 11.667 34.5469L11.6481 29.0125C11.6472 28.7559 11.5746 28.5047 11.4384 28.2872C11.3318 28.1153 11.227 27.9434 11.129 27.7613C11.0075 27.5428 10.8294 27.3611 10.6134 27.2353L5.69774 24.4355C5.44336 22.8264 5.44336 21.1874 5.69774 19.5783L10.5996 16.7802C10.8148 16.6578 10.9929 16.4797 11.1152 16.2645C11.2149 16.0927 11.3198 15.9105 11.4263 15.7386C11.5627 15.5219 11.6354 15.2711 11.636 15.015L11.6618 9.47204C12.9817 8.43554 14.4521 7.60671 16.0223 7.01423L20.9688 9.77454C21.1841 9.89387 21.4275 9.95323 21.6735 9.94641C21.8815 9.94641 22.0912 9.94641 22.2991 9.94641C22.5451 9.95256 22.7883 9.89325 23.0038 9.77454L27.9607 7.00735C29.5342 7.59529 31.0087 8.42006 32.3332 9.45313L32.3521 14.9875C32.353 15.2441 32.4256 15.4954 32.5618 15.7128C32.6684 15.8847 32.7732 16.0566 32.8712 16.2388C32.9927 16.4572 33.1708 16.6389 33.3868 16.7647L38.3024 19.5645C38.5602 21.1748 38.5631 22.8157 38.311 24.4269H38.3179Z" fill="#004EFF"/>
</svg>
