<svg width="45" height="44" viewBox="0 0 45 44" fill="none" xmlns="http://www.w3.org/2000/svg">
<path d="M36.6831 19.0137V35.75C36.6831 36.844 36.2485 37.8932 35.4749 38.6668C34.7013 39.4404 33.6521 39.875 32.5581 39.875H13.3081C12.2141 39.875 11.1649 39.4404 10.3913 38.6668C9.6177 37.8932 9.18311 36.844 9.18311 35.75V8.25C9.18311 7.15598 9.6177 6.10677 10.3913 5.33318C11.1649 4.5596 12.2141 4.125 13.3081 4.125H21.7944C22.5235 4.12511 23.2227 4.41475 23.7383 4.93023L35.8779 17.0698C36.3934 17.5854 36.683 18.2846 36.6831 19.0137Z" stroke="#004EFF" stroke-width="2.5" stroke-linejoin="round"/>
<path d="M22.9331 4.8125V15.125C22.9331 15.8543 23.2228 16.5538 23.7386 17.0695C24.2543 17.5853 24.9538 17.875 25.6831 17.875H35.9956" stroke="#004EFF" stroke-width="2.5" stroke-linecap="round" stroke-linejoin="round"/>
</svg>
