<svg width="45" height="44" viewBox="0 0 45 44" fill="none" xmlns="http://www.w3.org/2000/svg">
<path d="M39.5744 11.6087C39.491 11.4026 39.3588 11.2197 39.1892 11.0759C39.0196 10.932 38.8177 10.8315 38.6007 10.7828C38.3837 10.7341 38.1581 10.7388 37.9434 10.7964C37.7286 10.8541 37.531 10.963 37.3675 11.1137L30.4409 17.5058L27.4795 16.8698L26.8436 13.9084L33.2356 6.98186C33.3864 6.8184 33.4953 6.6208 33.5529 6.40602C33.6106 6.19123 33.6153 5.96567 33.5666 5.74868C33.5179 5.53169 33.4173 5.32974 33.2735 5.16015C33.1296 4.99056 32.9468 4.8584 32.7406 4.77499C30.8619 4.01502 28.8253 3.72807 26.8098 3.93936C24.7942 4.15066 22.8614 4.85373 21.1812 5.9868C19.5009 7.11986 18.1246 8.64825 17.1733 10.4377C16.2219 12.2271 15.7246 14.2228 15.725 16.2494C15.7228 17.9607 16.0739 19.654 16.7563 21.2234L6.40766 30.1712C6.38188 30.1919 6.35782 30.2159 6.33375 30.2383C5.30219 31.2698 4.72266 32.6689 4.72266 34.1278C4.72266 34.8502 4.86493 35.5654 5.14137 36.2328C5.4178 36.9002 5.82297 37.5066 6.33375 38.0173C6.84453 38.5281 7.45092 38.9333 8.11829 39.2097C8.78565 39.4862 9.50093 39.6284 10.2233 39.6284C11.6821 39.6284 13.0812 39.0489 14.1128 38.0173C14.1352 37.995 14.1592 37.9692 14.1798 37.9451L23.1259 27.5931C25.0104 28.4203 27.0715 28.7645 29.1225 28.5945C31.1735 28.4244 33.1498 27.7455 34.8723 26.6192C36.5948 25.493 38.0092 23.9549 38.9875 22.1442C39.9658 20.3335 40.4771 18.3074 40.475 16.2494C40.4777 14.6588 40.1718 13.0828 39.5744 11.6087ZM28.1 25.8744C26.4725 25.8721 24.8719 25.4583 23.4473 24.6712C23.1714 24.5188 22.8513 24.4658 22.5409 24.5212C22.2305 24.5766 21.9486 24.7369 21.7423 24.9755L12.1345 36.1026C11.6146 36.5966 10.9223 36.8679 10.2052 36.8587C9.48811 36.8495 8.80297 36.5606 8.29587 36.0535C7.78877 35.5464 7.49982 34.8613 7.49064 34.1442C7.48146 33.4271 7.75277 32.7348 8.24672 32.2148L19.3653 22.6087C19.6042 22.4024 19.7649 22.1202 19.8203 21.8094C19.8757 21.4986 19.8225 21.1782 19.6695 20.902C18.793 19.3167 18.3817 17.5162 18.4828 15.7076C18.5839 13.8989 19.1934 12.1555 20.2411 10.6778C21.2889 9.20005 22.7324 8.04799 24.4057 7.35406C26.079 6.66012 27.9141 6.45247 29.7002 6.75499L24.3377 12.5661C24.1885 12.7279 24.0803 12.9233 24.0223 13.1356C23.9642 13.348 23.9581 13.5712 24.0042 13.7864L24.977 18.3119C25.0327 18.5707 25.1619 18.808 25.3491 18.9952C25.5363 19.1824 25.7735 19.3115 26.0323 19.3672L30.5613 20.34C30.7765 20.3862 30.9997 20.38 31.212 20.3219C31.4244 20.2639 31.6197 20.1558 31.7816 20.0066L37.5927 14.6441C37.8243 16.0242 37.7526 17.4383 37.3824 18.7879C37.0121 20.1375 36.3524 21.3903 35.449 22.4591C34.5455 23.5279 33.4201 24.3871 32.151 24.9769C30.8819 25.5667 29.4995 25.873 28.1 25.8744Z" fill="#004EFF"/>
</svg>
