<svg width="45" height="44" viewBox="0 0 45 44" fill="none" xmlns="http://www.w3.org/2000/svg">
<g clip-path="url(#clip0_153_108)">
<path d="M26.3921 25.3301C25.1317 24.2559 23.7352 23.4323 22.2026 22.8594C20.6701 22.2865 19.0802 22 17.4331 22C16.1727 22 14.9552 22.1647 13.7808 22.4941C12.6063 22.8236 11.5106 23.2819 10.4937 23.8691C9.47673 24.4564 8.5529 25.1725 7.72217 26.0176C6.89144 26.8626 6.17529 27.7936 5.57373 28.8105C4.97217 29.8275 4.50667 30.9232 4.17725 32.0977C3.84782 33.2721 3.68311 34.4896 3.68311 35.75H0.933105C0.933105 34.0312 1.18376 32.377 1.68506 30.7871C2.18636 29.1973 2.90967 27.7292 3.85498 26.3828C4.80029 25.0365 5.91748 23.8405 7.20654 22.7949C8.49561 21.7493 9.95654 20.9258 11.5894 20.3242C9.97087 19.2643 8.71045 17.9323 7.80811 16.3281C6.90576 14.724 6.44743 12.9479 6.43311 11C6.43311 9.48177 6.71956 8.05664 7.29248 6.72461C7.8654 5.39258 8.646 4.22526 9.63428 3.22266C10.6226 2.22005 11.7899 1.43229 13.1362 0.859375C14.4826 0.286458 15.9149 0 17.4331 0C18.9513 0 20.3765 0.286458 21.7085 0.859375C23.0405 1.43229 24.2078 2.21289 25.2104 3.20117C26.2131 4.18945 27.0008 5.35677 27.5737 6.70312C28.1466 8.04948 28.4331 9.48177 28.4331 11C28.4331 11.9453 28.3185 12.8691 28.0894 13.7715C27.8602 14.6738 27.5164 15.526 27.0581 16.3281C26.5998 17.1302 26.0627 17.8678 25.4468 18.541C24.8309 19.2142 24.1076 19.8086 23.2769 20.3242C24.2078 20.6823 25.0959 21.1191 25.9409 21.6348C26.786 22.1504 27.5809 22.7305 28.3257 23.375L26.3921 25.3301ZM9.18311 11C9.18311 12.1458 9.39795 13.2129 9.82764 14.2012C10.2573 15.1895 10.8446 16.0632 11.5894 16.8223C12.3341 17.5814 13.2078 18.1758 14.2104 18.6055C15.2131 19.0352 16.2873 19.25 17.4331 19.25C18.5646 19.25 19.6317 19.0352 20.6343 18.6055C21.6369 18.1758 22.5106 17.5885 23.2554 16.8438C24.0002 16.099 24.5946 15.2253 25.0386 14.2227C25.4826 13.2201 25.6974 12.1458 25.6831 11C25.6831 9.86849 25.4683 8.80143 25.0386 7.79883C24.6089 6.79622 24.0216 5.92253 23.2769 5.17773C22.5321 4.43294 21.6512 3.83854 20.6343 3.39453C19.6174 2.95052 18.5503 2.73568 17.4331 2.75C16.2873 2.75 15.2202 2.96484 14.2319 3.39453C13.2437 3.82422 12.37 4.41146 11.6108 5.15625C10.8517 5.90104 10.2573 6.7819 9.82764 7.79883C9.39795 8.81576 9.18311 9.88281 9.18311 11ZM38.0581 16.5C39.0034 16.5 39.8914 16.679 40.7222 17.0371C41.5529 17.3952 42.2762 17.8893 42.8921 18.5195C43.508 19.1497 44.0021 19.8802 44.3745 20.7109C44.7469 21.5417 44.9331 22.4297 44.9331 23.375C44.9331 24.3203 44.7541 25.2083 44.396 26.0391C44.0379 26.8698 43.5438 27.6003 42.9136 28.2305C42.2834 28.8607 41.5529 29.3548 40.7222 29.7129C39.8914 30.071 39.0034 30.25 38.0581 30.25C37.7287 30.25 37.4064 30.2285 37.0913 30.1855L24.48 42.7969C24.0933 43.1836 23.6493 43.4772 23.1479 43.6777C22.6466 43.8783 22.1167 43.9857 21.5581 44C20.9852 44 20.4481 43.8926 19.9468 43.6777C19.4455 43.4629 19.0086 43.1693 18.6362 42.7969C18.2638 42.4245 17.9702 41.9876 17.7554 41.4863C17.5405 40.985 17.4331 40.4479 17.4331 39.875C17.4331 39.3307 17.5334 38.8079 17.7339 38.3066C17.9344 37.8053 18.2352 37.3542 18.6362 36.9531L31.2476 24.3418C31.2046 24.0267 31.1831 23.7044 31.1831 23.375C31.1831 22.4297 31.3621 21.5417 31.7202 20.7109C32.0783 19.8802 32.5653 19.1569 33.1812 18.541C33.797 17.9251 34.5275 17.431 35.3726 17.0586C36.2176 16.6862 37.1128 16.5 38.0581 16.5ZM38.0581 27.5C38.631 27.5 39.1681 27.3926 39.6694 27.1777C40.1707 26.9629 40.6076 26.6693 40.98 26.2969C41.3524 25.9245 41.646 25.4876 41.8608 24.9863C42.0757 24.485 42.1831 23.9479 42.1831 23.375C42.1831 22.7878 42.047 22.2005 41.7749 21.6133L38.6382 24.75H36.6831V22.7949L39.8198 19.6582C39.2326 19.3861 38.6453 19.25 38.0581 19.25C37.4852 19.25 36.9481 19.3574 36.4468 19.5723C35.9455 19.7871 35.5086 20.0807 35.1362 20.4531C34.7638 20.8255 34.4702 21.2624 34.2554 21.7637C34.0405 22.265 33.9331 22.8021 33.9331 23.375C33.9331 23.9622 34.0692 24.5495 34.3413 25.1367L20.5913 38.9082C20.3192 39.1803 20.1831 39.5026 20.1831 39.875C20.1831 40.2474 20.3192 40.5697 20.5913 40.8418C20.8634 41.1139 21.1857 41.25 21.5581 41.25C21.9305 41.25 22.2528 41.1139 22.5249 40.8418L36.2964 27.0918C36.8836 27.3639 37.4709 27.5 38.0581 27.5Z" fill="#004EFF"/>
</g>
<defs>
<clipPath id="clip0_153_108">
<rect width="44" height="44" fill="white" transform="translate(0.933105)"/>
</clipPath>
</defs>
</svg>
