<svg width="44" height="44" viewBox="0 0 44 44" fill="none" xmlns="http://www.w3.org/2000/svg">
<path fill-rule="evenodd" clip-rule="evenodd" d="M21.9998 3.66669C32.1253 3.66669 40.3332 11.8745 40.3332 22C40.3332 29.8834 35.3575 36.6044 28.3762 39.193C28.2581 39.2579 28.1333 39.3095 28.004 39.347L27.8298 39.3874C25.9504 40.0157 23.9815 40.3352 21.9998 40.3334C11.8743 40.3334 3.6665 32.1255 3.6665 22C3.6665 11.8745 11.8743 3.66669 21.9998 3.66669ZM27.3348 8.33435L27.0122 9.94952C26.8042 10.9891 26.3002 11.9463 25.5609 12.7061C24.8216 13.4659 23.8785 13.9959 22.845 14.2322L22.1098 14.4009C21.6538 14.5048 21.2548 14.7791 20.9944 15.1677C20.734 15.5562 20.632 16.0296 20.7092 16.4909L21.03 18.4122C21.1322 19.028 21.0755 19.6598 20.8652 20.2476C20.6549 20.8354 20.2981 21.3598 19.8284 21.7711C19.3587 22.1823 18.7919 22.4669 18.1814 22.5977C17.571 22.7286 16.9373 22.7015 16.3403 22.5189L13.9753 21.7965C12.8488 21.4522 11.8627 20.7552 11.162 19.8084C10.4613 18.8615 10.0832 17.7146 10.0832 16.5367V13.4475C8.34729 15.8643 7.38757 18.7519 7.33144 21.727C7.27531 24.7021 8.12542 27.6238 9.76891 30.1044C11.4124 32.5849 13.7715 34.5069 16.533 35.6152C19.2946 36.7234 22.3278 36.9654 25.2302 36.3092L24.165 32.5839C24.079 32.2844 23.9181 32.0118 23.6975 31.7919L21.4278 29.5204C21.1543 29.2469 20.9415 28.9189 20.8033 28.5577C20.6651 28.1964 20.6047 27.8101 20.626 27.424C20.6473 27.0378 20.7498 26.6604 20.9268 26.3166C21.1038 25.9727 21.3514 25.67 21.6533 25.4284L24.5225 23.1349C25.0695 22.6973 25.7304 22.4255 26.427 22.3518C27.1235 22.278 27.8267 22.4054 28.4532 22.7187L31.1482 24.0662C31.9579 24.4711 32.6552 25.0697 33.1781 25.8088C33.701 26.5479 34.0333 27.4047 34.1457 28.303L34.3473 29.9182C35.5189 28.0905 36.2703 26.0256 36.5473 23.8724C36.8243 21.7192 36.62 19.5314 35.9492 17.4667C35.2784 15.402 34.1577 13.5119 32.6681 11.9326C31.1784 10.3534 29.3569 9.12445 27.3348 8.33435ZM26.8123 25.9985L24.7443 27.6522L26.2917 29.1977C26.8566 29.7633 27.2914 30.4452 27.5658 31.196L27.6905 31.5774L28.686 35.057C29.3289 34.727 29.9424 34.353 30.5267 33.935L31.1005 33.5024L30.5083 28.7577C30.4756 28.4963 30.3869 28.2451 30.2483 28.0211C30.1098 27.7972 29.9246 27.6057 29.7053 27.4597L29.5073 27.346L26.8123 25.9985ZM21.9998 7.33335C19.0522 7.3284 16.1721 8.2162 13.7388 9.87985C13.7462 9.94585 13.7498 10.0137 13.7498 10.0834V16.5367C13.7495 16.9294 13.8752 17.3118 14.1086 17.6277C14.3419 17.9435 14.6705 18.1761 15.046 18.2912L17.4128 19.0135L17.092 17.0922C16.8614 15.7091 17.1678 14.2902 17.9485 13.1255C18.7292 11.9607 19.9252 11.1381 21.2922 10.8259L22.0273 10.659C22.3723 10.5802 22.687 10.4032 22.9336 10.1495C23.1802 9.89573 23.3481 9.57606 23.417 9.22902L23.7763 7.43969C23.1869 7.36832 22.5936 7.33281 21.9998 7.33335Z" fill="#004EFF"/>
</svg>
