<svg width="44" height="44" viewBox="0 0 44 44" fill="none" xmlns="http://www.w3.org/2000/svg">
<path d="M6.4167 14.6667C6.41706 12.9285 6.86673 11.22 7.72206 9.70684C8.5774 8.1937 9.80936 6.92736 11.2984 6.0307C12.7874 5.13404 14.4829 4.63753 16.2204 4.58933C17.9579 4.54113 19.6784 4.94289 21.2148 5.75562C22.7512 6.56834 24.0515 7.76444 24.9894 9.22784C25.9273 10.6912 26.471 12.3722 26.5677 14.1077C26.6645 15.8431 26.3109 17.5741 25.5414 19.1327C24.772 20.6912 23.6126 22.0244 22.176 23.0028C25.2698 24.1376 27.9532 26.1722 29.8809 28.8448C31.8086 31.5174 32.8923 34.7058 32.9927 37.9995C32.9884 38.3546 32.8471 38.6944 32.5982 38.9477C32.3494 39.2011 32.0122 39.3485 31.6573 39.3592C31.3023 39.3698 30.9569 39.2429 30.6933 39.0049C30.4297 38.7669 30.2682 38.4362 30.2427 38.082C30.1335 34.5097 28.6377 31.1202 26.0722 28.6319C23.5067 26.1436 20.0731 24.752 16.4991 24.752C12.9251 24.752 9.49155 26.1436 6.92605 28.6319C4.36054 31.1202 2.86471 34.5097 2.75553 38.082C2.73718 38.441 2.57894 38.7786 2.31472 39.0224C2.05051 39.2662 1.70132 39.3968 1.34198 39.3862C0.982639 39.3757 0.641719 39.2248 0.392256 38.9659C0.142793 38.7071 0.0046294 38.3608 0.00736405 38.0013C0.107375 34.7073 1.19098 31.5185 3.11869 28.8455C5.0464 26.1725 7.72999 24.1377 10.824 23.0028C9.46567 22.0777 8.35403 20.8346 7.58588 19.3817C6.81773 17.9288 6.41635 16.3101 6.4167 14.6667ZM16.5 7.33335C14.5551 7.33335 12.6898 8.10596 11.3146 9.48123C9.93931 10.8565 9.1667 12.7218 9.1667 14.6667C9.1667 16.6116 9.93931 18.4769 11.3146 19.8521C12.6898 21.2274 14.5551 22 16.5 22C18.445 22 20.3102 21.2274 21.6855 19.8521C23.0607 18.4769 23.8334 16.6116 23.8334 14.6667C23.8334 12.7218 23.0607 10.8565 21.6855 9.48123C20.3102 8.10596 18.445 7.33335 16.5 7.33335ZM31.6984 14.6667C31.4283 14.6667 31.163 14.685 30.9027 14.7217C30.7209 14.7542 30.5345 14.7498 30.3545 14.7088C30.1744 14.6677 30.0045 14.5908 29.8549 14.4826C29.7052 14.3744 29.5789 14.2372 29.4834 14.0792C29.3879 13.9211 29.3253 13.7455 29.2992 13.5627C29.2731 13.3799 29.284 13.1937 29.3314 13.0152C29.3788 12.8368 29.4617 12.6697 29.5751 12.5239C29.6884 12.3782 29.83 12.2568 29.9913 12.1669C30.1527 12.0771 30.3304 12.0207 30.514 12.001C32.3374 11.7374 34.1967 12.0875 35.7993 12.9964C37.4019 13.9052 38.6568 15.3211 39.3665 17.0213C40.0762 18.7214 40.2004 20.6093 39.7196 22.3878C39.2389 24.1663 38.1804 25.7345 36.7107 26.8455C38.8711 27.8129 40.7054 29.3847 41.9923 31.3713C43.2792 33.358 43.9638 35.6746 43.9634 38.0417C43.9634 38.4064 43.8185 38.7561 43.5606 39.014C43.3028 39.2718 42.953 39.4167 42.5884 39.4167C42.2237 39.4167 41.874 39.2718 41.6161 39.014C41.3582 38.7561 41.2134 38.4064 41.2134 38.0417C41.214 35.9957 40.5552 34.0041 39.3346 32.3621C38.114 30.7201 36.3967 29.5153 34.4374 28.9263L33.4584 28.633V25.5603L34.21 25.1772C35.3242 24.6128 36.2157 23.6893 36.7406 22.556C37.2654 21.4226 37.393 20.1454 37.1027 18.9306C36.8124 17.7158 36.1212 16.6342 35.1406 15.8606C34.1601 15.087 32.9474 14.6663 31.6984 14.6667Z" fill="#004EFF"/>
</svg>
