<svg width="45" height="44" viewBox="0 0 45 44" fill="none" xmlns="http://www.w3.org/2000/svg">
<path d="M17.8458 41.0648C16.7263 41.1824 15.6017 41.2442 14.4761 41.25C13.2753 41.25 12.9929 41.1629 12.0222 41.0648C10.7663 40.9365 9.82218 39.9098 9.72134 38.6512L9.03659 30.1033C8.28126 30.0685 6.68626 30.03 6.09592 29.9933C4.62742 29.9007 3.53109 28.6321 3.69976 27.17C4.09018 23.8408 4.81589 20.5596 5.86584 17.3763C6.33426 15.9647 7.55251 14.9875 9.03567 14.8647C10.2906 14.7583 12.0781 14.6667 14.4761 14.6667C16.8741 14.6667 18.6616 14.7583 19.9156 14.8637C21.3969 14.9866 22.6161 15.9637 23.0845 17.3754C23.5865 18.8953 24.0145 20.4386 24.3669 22M27.5166 26.5833C27.7073 25.6291 28.0895 24.5795 28.4241 23.7673C28.7935 22.869 29.5672 22.2044 30.5324 22.0898C31.0528 22.03 31.5761 22.0001 32.0999 22C32.7022 22 33.2283 22.0376 33.6674 22.0898C34.6327 22.2044 35.4063 22.869 35.7758 23.7673C36.1103 24.5795 36.4926 25.6282 36.6833 26.5833" stroke="#004EFF" stroke-width="2.5" stroke-linecap="round" stroke-linejoin="round"/>
<path d="M20.4333 8.70833C20.4333 10.2886 19.8055 11.8041 18.6881 12.9215C17.5707 14.0389 16.0552 14.6667 14.4749 14.6667C12.8947 14.6667 11.3792 14.0389 10.2618 12.9215C9.14435 11.8041 8.5166 10.2886 8.5166 8.70833C8.5166 7.12809 9.14435 5.61256 10.2618 4.49516C11.3792 3.37775 12.8947 2.75 14.4749 2.75C16.0552 2.75 17.5707 3.37775 18.6881 4.49516C19.8055 5.61256 20.4333 7.12809 20.4333 8.70833ZM22.218 29.4708C22.3454 28.1371 23.3024 27.1003 24.6334 26.9399C26.1239 26.7593 28.5018 26.5833 32.0997 26.5833C35.6976 26.5833 38.0764 26.7593 39.5659 26.9399C40.8969 27.1003 41.8539 28.1371 41.9814 29.4708C42.0868 30.5864 42.183 32.0971 42.183 33.9167C42.183 35.7363 42.0868 37.2469 41.9814 38.3625C41.8539 39.6962 40.8969 40.733 39.5659 40.8934C38.0754 41.074 35.6976 41.25 32.0997 41.25C28.5018 41.25 26.123 41.0731 24.6334 40.8934C23.3024 40.733 22.3454 39.6962 22.218 38.3625C22.0816 36.8845 22.0143 35.4009 22.0164 33.9167C22.0164 32.0971 22.1126 30.5864 22.218 29.4708Z" stroke="#004EFF" stroke-width="2.5" stroke-linecap="round" stroke-linejoin="round"/>
</svg>
